<svg xmlns="http://www.w3.org/2000/svg" viewBox="0 0 330 1200" fill="none">
  <defs>
    <g id="flower">
      <path d="M0-4C-8-19-7-31 0-36c7 5 8 17 0 32Z" fill="#e7a8b7" stroke="#c88498" stroke-width="1"/>
      <path d="M3-1C16-14 27-17 34-11c-2 8-13 15-30 14Z" fill="#e5a3b3" stroke="#c88498" stroke-width="1"/>
      <path d="M2 4c15 7 21 18 17 26-9 2-19-6-22-23Z" fill="#efb9c4" stroke="#c88498" stroke-width="1"/>
      <path d="M-3 4c-13 10-25 10-30 2 2-9 13-14 29-11Z" fill="#edb1bf" stroke="#c88498" stroke-width="1"/>
      <path d="M-4-2c-16-4-23-14-19-22 8-3 19 3 22 19Z" fill="#f1c0c9" stroke="#c88498" stroke-width="1"/>
      <circle r="4" fill="#c47c88"/><circle r="2" fill="#e7cb89"/>
      <path d="M0 0v-10M0 0l9-4M0 0l6 8M0 0l-8 5M0 0l-7-7" stroke="#ad6877" stroke-width=".7"/>
    </g>
    <g id="bud"><path d="M0 0c-3-8-2-14 4-17 5 4 4 11-4 17Z" fill="#eab2be" stroke="#c98799"/><path d="M0 1c-5-2-8-5-9-8" stroke="#9f887b" stroke-width="1.4"/></g>
  </defs>
  <path d="M-8 7C75 79 162 116 141 250c-19 118 57 180 30 313-26 124 47 199 13 355-15 70-53 149-28 281M142 251c-35-22-67-23-110-7M170 431c34-36 65-50 123-45M158 635c-43-35-69-51-116-52M188 826c32-35 59-45 102-49M163 1060c-38-20-73-20-122-5" stroke="#a49483" stroke-width="2.2" stroke-linecap="round"/>
  <path d="M86 97c32-11 56-7 76 11M80 241c-8-20-20-31-39-35M253 390c-1-24 8-42 24-54M85 581c-5-28-23-45-44-55M241 784c-1-26 11-44 27-56M91 1053c-8-22-23-35-43-41" stroke="#a49483" stroke-width="1.4" stroke-linecap="round"/>
  <path d="M115 179c-14-7-26-5-33 1 10 8 22 9 33-1ZM197 405c10-14 25-17 32-16-7 13-19 18-32 16ZM134 645c-8-15-22-19-30-18 5 13 17 20 30 18ZM214 807c14-11 27-9 34-5-10 10-21 12-34 5ZM124 1064c-15-7-27-5-33 1 12 7 23 8 33-1Z" fill="#9ea98e" opacity=".55"/>
  <use href="#flower" transform="translate(160 110) scale(.52) rotate(-10)"/>
  <use href="#flower" transform="translate(36 244) scale(.7) rotate(18)"/>
  <use href="#flower" transform="translate(270 387) scale(.68) rotate(-12)"/>
  <use href="#flower" transform="translate(171 559) scale(.84) rotate(15)"/>
  <use href="#flower" transform="translate(44 583) scale(.58) rotate(32)"/>
  <use href="#flower" transform="translate(284 776) scale(.62) rotate(-18)"/>
  <use href="#flower" transform="translate(183 918) scale(.72) rotate(8)"/>
  <use href="#flower" transform="translate(40 1056) scale(.58) rotate(17)"/>
  <use href="#bud" transform="translate(42 205) rotate(12)"/>
  <use href="#bud" transform="translate(275 338) rotate(32)"/>
  <use href="#bud" transform="translate(43 527) rotate(12)"/>
  <use href="#bud" transform="translate(268 728) rotate(-24)"/>
  <ellipse cx="63" cy="713" rx="5" ry="12" transform="rotate(32 63 713)" fill="#e6a7b6" opacity=".62"/>
  <ellipse cx="243" cy="988" rx="4" ry="10" transform="rotate(-38 243 988)" fill="#e9b2be" opacity=".46"/>
</svg>
